:SAMPLES-PER-SECOND 30
:FULLY-SPECIFIED
:DEGREES
231
root  60.3826 37.2863 18.9642 -151.809 5.48828 177.403
RightUpLeg  -64.2983 -27.3306 24.5266
RightLeg  33.2664 -3.28563 -2.57565
RightFoot  -5.36421 0.585967 -11.8624
RightToes  0.00048216 0.542163 -0.142577
Spine  65.3978 -5.09547 5.97285
Spine1  7.38945 -0.544878 -4.3625
HEad  -38.233 9.32161 -21.3143
LeftShoulder1  7.65326 -27.2538 -18.0822
LeftArm  -38.0166 -71.6113 -12.5164
LeftForeArm  23.4689 -0.661814 -3.39938
LeftHand  -0.25398 0.0180481 5.50724
RightShoulder  2.55427 11.491 9.73235
RightArm  -44.5692 71.5304 13.1565
RightForeArm  -12.9034 2.35107 3.85227
RightHand  -2.93793 7.65885 -26.1217
LeftUpLeg  -61.2919 22.1213 -19.9432
LeftLeg  27.4534 2.93024 1.99513
LeftFoot  0.943341 -0.710751 6.54522
LeftToes  1.06246e-005 4.65856e-005 -8.18501e-006
232
root  60.1545 37.6304 19.0037 -153.677 5.81699 177.315
RightUpLeg  -61.2866 -28.812 23.583
RightLeg  30.7581 -2.4572 -1.82549
RightFoot  -4.18407 0.684092 -11.3421
RightToes  0.00048216 0.542163 -0.142577
Spine  64.2662 -5.03618 5.83679
Spine1  7.65456 -0.674423 -4.00013
HEad  -37.9408 11.528 -23.4699
LeftShoulder1  8.09045 -26.5923 -20.2817
LeftArm  -31.4354 -66.5944 -18.6819
LeftForeArm  23.64 -1.70692 -3.7021
LeftHand  -0.25398 0.0180481 5.50724
RightShoulder  2.83426 12.211 10.8611
RightArm  -34.0549 68.5215 22.8051
RightForeArm  -9.06142 3.29465 4.60524
RightHand  -2.83224 7.48201 -25.5494
LeftUpLeg  -57.6538 22.4183 -19.2023
LeftLeg  24.8502 3.45777 2.0852
LeftFoot  1.49694 -0.686449 6.01646
LeftToes  1.06246e-005 4.65856e-005 -8.18501e-006
233
root  59.8892 37.9534 19.0107 -155.732 6.25253 177.278
RightUpLeg  -57.9115 -30.1647 22.2412
RightLeg  28.334 -1.58088 -1.16112
RightFoot  -2.97383 0.759713 -10.6196
RightToes  0.00048216 0.542163 -0.142577
Spine  63.2671 -4.7507 5.25607
Spine1  7.64555 -1.11824 -2.79382
HEad  -37.7918 14.0674 -26.1643
LeftShoulder1  8.69446 -24.3599 -24.8368
LeftArm  -26.9799 -61.7458 -22.1476
LeftForeArm  22.9459 -2.19296 -4.16692
LeftHand  -0.25398 0.0180481 5.50724
RightShoulder  3.08831 13.4884 10.9876
RightArm  -25.8765 64.5145 30.2843
RightForeArm  -6.06636 3.68802 5.20148
RightHand  -2.95593 7.80355 -25.9977
LeftUpLeg  -53.9499 22.9053 -18.5111
LeftLeg  22.4101 4.02049 2.15267
LeftFoot  2.14356 -0.671057 5.55835
LeftToes  1.06246e-005 4.65856e-005 -8.18501e-006
234
root  59.5724 38.2436 18.9848 -157.938 6.6355 177.257
RightUpLeg  -54.2688 -31.4005 20.4706
RightLeg  26.101 -0.808097 -0.661479
RightFoot  -1.87862 0.790712 -9.67458
RightToes  0.00048216 0.542163 -0.142577
Spine  61.9755 -4.54117 5.41043
Spine1  7.6343 -1.01127 -2.33208
HEad  -36.8869 15.4993 -27.8855
LeftShoulder1  9.18897 -23.2725 -28.0996
LeftArm  -24.0329 -55.998 -24.9868
LeftForeArm  22.2811 -2.2873 -4.19442
LeftHand  -0.25398 0.0180481 5.50724
RightShoulder  3.53848 13.8831 13.3938
RightArm  -19.9246 59.9589 33.182
RightForeArm  -4.48645 3.86145 6.20778
RightHand  -2.92373 7.59593 -26.1153
LeftUpLeg  -50.1486 23.0117 -17.4507
LeftLeg  20.4831 4.65978 2.25566
LeftFoot  2.88071 -0.70224 5.48584
LeftToes  1.06246e-005 4.65856e-005 -8.18501e-006
235
root  59.2012 38.5 18.9255 -160.155 6.86868 177.256
RightUpLeg  -50.653 -32.7789 18.6139
RightLeg  24.0835 -0.0159377 -0.240225
RightFoot  -0.987574 0.760928 -8.44977
RightToes  0.00048216 0.542163 -0.142577
Spine  60.4718 -4.3946 5.87307
Spine1  7.52304 -0.887424 -1.8933
HEad  -35.6308 16.8039 -29.2423
LeftShoulder1  9.75836 -22.8249 -30.8896
LeftArm  -21.856 -49.3299 -25.6058
LeftForeArm  21.1639 -2.73363 -4.51989
LeftHand  -0.25398 0.0180481 5.50724
RightShoulder  4.02285 13.9442 16.388
RightArm  -15.6148 55.1931 33.7503
RightForeArm  -3.16071 3.93173 7.17313
RightHand  -2.49623 6.34213 -24.6927
LeftUpLeg  -46.4207 22.275 -15.6095
LeftLeg  19.64 4.37154 2.06162
LeftFoot  3.34537 -0.572287 4.28566
LeftToes  1.06246e-005 4.65856e-005 -8.18501e-006
